<svg xmlns="http://www.w3.org/2000/svg" viewBox="0 0 600 400" fill="none" role="img" aria-label="Agile Project Dashboard kanban board">
  <defs>
    <linearGradient id="kbg" x1="0" y1="0" x2="600" y2="400" gradientUnits="userSpaceOnUse">
      <stop stop-color="#0f172a"/>
      <stop offset="1" stop-color="#0c4a6e"/>
    </linearGradient>
  </defs>
  <rect width="600" height="400" fill="url(#kbg)"/>
  <circle cx="540" cy="60" r="120" fill="#22c55e" opacity="0.18"/>
  <circle cx="60" cy="340" r="120" fill="#06b6d4" opacity="0.15"/>

  <!-- columns -->
  <g transform="translate(40,40)">
    <!-- Column 1: To Do -->
    <g>
      <rect x="0" y="0" width="160" height="320" rx="14" fill="#ffffff" opacity="0.05"/>
      <rect x="0" y="0" width="160" height="320" rx="14" fill="none" stroke="#ffffff" stroke-opacity="0.1"/>
      <circle cx="18" cy="22" r="5" fill="#94a3b8"/>
      <text x="32" y="26" font-family="Inter,sans-serif" font-size="12" font-weight="700" fill="#cbd5e1">TO DO</text>

      <g transform="translate(12,46)">
        <rect width="136" height="60" rx="8" fill="#1e293b"/>
        <rect x="12" y="10" width="80" height="6" rx="3" fill="#22c55e"/>
        <rect x="12" y="22" width="100" height="6" rx="3" fill="#fff" opacity="0.6"/>
        <rect x="12" y="34" width="60" height="6" rx="3" fill="#fff" opacity="0.4"/>
        <circle cx="120" cy="46" r="6" fill="#22c55e"/>
      </g>
      <g transform="translate(12,116)">
        <rect width="136" height="60" rx="8" fill="#1e293b"/>
        <rect x="12" y="10" width="64" height="6" rx="3" fill="#a78bfa"/>
        <rect x="12" y="22" width="100" height="6" rx="3" fill="#fff" opacity="0.6"/>
        <circle cx="120" cy="46" r="6" fill="#a78bfa"/>
      </g>
      <g transform="translate(12,186)">
        <rect width="136" height="60" rx="8" fill="#1e293b"/>
        <rect x="12" y="10" width="50" height="6" rx="3" fill="#fbbf24"/>
        <rect x="12" y="22" width="80" height="6" rx="3" fill="#fff" opacity="0.6"/>
        <rect x="12" y="34" width="100" height="6" rx="3" fill="#fff" opacity="0.4"/>
        <circle cx="120" cy="46" r="6" fill="#fbbf24"/>
      </g>
    </g>

    <!-- Column 2: In Progress -->
    <g transform="translate(180,0)">
      <rect width="160" height="320" rx="14" fill="#ffffff" opacity="0.05"/>
      <rect width="160" height="320" rx="14" fill="none" stroke="#ffffff" stroke-opacity="0.1"/>
      <circle cx="18" cy="22" r="5" fill="#06b6d4"/>
      <text x="32" y="26" font-family="Inter,sans-serif" font-size="12" font-weight="700" fill="#cbd5e1">IN PROGRESS</text>

      <g transform="translate(12,46)">
        <rect width="136" height="74" rx="8" fill="#1e293b"/>
        <rect x="12" y="10" width="90" height="6" rx="3" fill="#06b6d4"/>
        <rect x="12" y="22" width="110" height="6" rx="3" fill="#fff" opacity="0.6"/>
        <rect x="12" y="34" width="80" height="6" rx="3" fill="#fff" opacity="0.4"/>
        <rect x="12" y="50" width="80" height="14" rx="7" fill="#06b6d4" opacity="0.3"/>
        <rect x="12" y="50" width="50" height="14" rx="7" fill="#06b6d4"/>
      </g>
      <g transform="translate(12,130)">
        <rect width="136" height="60" rx="8" fill="#1e293b"/>
        <rect x="12" y="10" width="70" height="6" rx="3" fill="#22c55e"/>
        <rect x="12" y="22" width="100" height="6" rx="3" fill="#fff" opacity="0.6"/>
        <circle cx="120" cy="46" r="6" fill="#22c55e"/>
      </g>
    </g>

    <!-- Column 3: Done -->
    <g transform="translate(360,0)">
      <rect width="160" height="320" rx="14" fill="#ffffff" opacity="0.05"/>
      <rect width="160" height="320" rx="14" fill="none" stroke="#ffffff" stroke-opacity="0.1"/>
      <circle cx="18" cy="22" r="5" fill="#22c55e"/>
      <text x="32" y="26" font-family="Inter,sans-serif" font-size="12" font-weight="700" fill="#cbd5e1">DONE</text>

      <g transform="translate(12,46)">
        <rect width="136" height="60" rx="8" fill="#1e293b" opacity="0.7"/>
        <rect x="12" y="10" width="60" height="6" rx="3" fill="#22c55e"/>
        <rect x="12" y="22" width="80" height="6" rx="3" fill="#fff" opacity="0.4"/>
        <path d="M112 42 l 4 4 8 -8" stroke="#22c55e" stroke-width="2" fill="none" stroke-linecap="round"/>
      </g>
      <g transform="translate(12,116)">
        <rect width="136" height="60" rx="8" fill="#1e293b" opacity="0.7"/>
        <rect x="12" y="10" width="80" height="6" rx="3" fill="#22c55e"/>
        <rect x="12" y="22" width="100" height="6" rx="3" fill="#fff" opacity="0.4"/>
        <path d="M112 42 l 4 4 8 -8" stroke="#22c55e" stroke-width="2" fill="none" stroke-linecap="round"/>
      </g>
      <g transform="translate(12,186)">
        <rect width="136" height="60" rx="8" fill="#1e293b" opacity="0.7"/>
        <rect x="12" y="10" width="50" height="6" rx="3" fill="#22c55e"/>
        <rect x="12" y="22" width="60" height="6" rx="3" fill="#fff" opacity="0.4"/>
        <path d="M112 42 l 4 4 8 -8" stroke="#22c55e" stroke-width="2" fill="none" stroke-linecap="round"/>
      </g>
    </g>
  </g>
</svg>
